<svg xmlns="http://www.w3.org/2000/svg" xmlns:xlink="http://www.w3.org/1999/xlink" fill="currentColor" version="1.1" width="1" height="1" viewBox="0 0 16 16"><defs><clipPath id="master_svg0_4_2211"><rect x="0" y="0" width="16" height="16" rx="0"/></clipPath></defs><g clip-path="url(#master_svg0_4_2211)"><g><path d="M13.603341015625,15.5874849609375C13.518541015625,15.0564849609375,13.309641015625,14.5430849609375,13.258741015625,13.9816849609375C13.220341015625,13.5556849609375,13.324441015625,13.6530849609375,13.564741015625,13.3753849609375C14.117341015625,12.7363849609375,14.176141015625,12.8568849609375,14.871941015625,11.7370849609375C17.361541015625,7.7305549609375,15.181841015625,2.0790649609375,10.274341015625,0.7071769609375C3.353161015625,-1.2275850390625,-2.623518984375,5.9886149609375,1.383591015625,12.1320849609375C2.268121015625,13.4883849609375,3.910201015625,14.8276849609375,6.006601015625,15.3408849609375C7.595071015625,15.7295849609375,11.747841015625,15.5874849609375,13.603341015625,15.5874849609375ZM11.402341015625,6.7588349609375C11.943941015625,6.7588349609375,12.382941015625,7.2387049609375,12.382941015625,7.8308349609375C12.382941015625,8.4227349609375,11.943941015625,8.9027649609375,11.402341015625,8.9027649609375C10.860741015625,8.9027649609375,10.421741015625,8.4227349609375,10.421741015625,7.8308349609375C10.421741015625,7.2387049609375,10.860741015625,6.7588349609375,11.402341015625,6.7588349609375ZM7.999841015625,6.7588349609375C8.541431015625,6.7588349609375,8.980621015625,7.2387049609375,8.980621015625,7.8308349609375C8.980621015625,8.4227349609375,8.541431015625,8.9027649609375,7.999841015625,8.9027649609375C7.458241015625,8.9027649609375,7.019241015625,8.4227349609375,7.019241015625,7.8308349609375C7.019241015625,7.2387049609375,7.458291015625,6.7588349609375,7.999841015625,6.7588349609375ZM4.597521015625,6.7588349609375C5.139121015625,6.7588349609375,5.578151015625,7.2387049609375,5.578151015625,7.8308349609375C5.578151015625,8.4227349609375,5.139121015625,8.9027649609375,4.597521015625,8.9027649609375C4.055951015625,8.9027649609375,3.616901015625,8.4227349609375,3.616901015625,7.8308349609375C3.616931015625,7.2387049609375,4.055951015625,6.7588349609375,4.597521015625,6.7588349609375Z" /></g></g></svg>