<svg xmlns="http://www.w3.org/2000/svg" xmlns:xlink="http://www.w3.org/1999/xlink" fill="currentColor" version="1.1" width="1" height="1" viewBox="0 0 16 16"><g><path d="M15.2,6.24L13.68,6.24C13.44,6.24,13.28,6.08,13.12,5.92C12.96,5.76,13.04,5.44,13.28,5.28L14.32,4.24C14.48,4.08,14.56,3.84,14.56,3.68C14.56,3.44,14.48,3.28,14.32,3.12L12.96,1.76C12.64,1.44,12.08,1.44,11.76,1.76L10.72,2.8C10.56,2.96,10.4,2.96,10.32,2.96C10.16,2.96,10,2.88,9.92,2.8C9.84,2.72,9.76,2.56,9.76,2.4L9.76,0.8C9.76,0.32,9.36,0,8.96,0L7.04,0C6.56,0,6.24,0.4,6.24,0.8L6.24,2.32C6.24,2.72,5.92,2.88,5.68,2.88C5.6,2.88,5.44,2.88,5.28,2.72L4.24,1.68C3.92,1.36,3.36,1.36,3.04,1.68L1.68,3.04C1.52,3.2,1.44,3.44,1.44,3.6C1.44,3.84,1.52,4,1.68,4.16L2.72,5.2C2.88,5.36,2.96,5.6,2.88,5.84C2.8,6.08,2.56,6.16,2.32,6.16L0.8,6.16C0.32,6.16,0,6.56,0,6.96L0,8.88C0,9.36,0.4,9.68,0.8,9.68L2.32,9.68C2.56,9.68,2.72,9.84,2.88,10C2.96,10.24,2.96,10.48,2.72,10.64L1.68,11.68C1.52,11.84,1.44,12.08,1.44,12.24C1.44,12.48,1.52,12.64,1.68,12.8L3.04,14.16C3.36,14.48,3.92,14.48,4.24,14.16L5.28,13.12C5.44,12.96,5.6,12.96,5.68,12.96C6,12.96,6.24,13.2,6.24,13.52L6.24,15.2C6.24,15.68,6.64,16,7.04,16L8.96,16C9.44,16,9.76,15.6,9.76,15.2L9.76,13.68C9.76,13.28,10.08,13.12,10.32,13.12C10.4,13.12,10.56,13.12,10.72,13.28L11.76,14.32C12.08,14.64,12.64,14.64,12.96,14.32L14.32,12.96C14.48,12.8,14.56,12.56,14.56,12.4C14.56,12.16,14.48,12,14.32,11.84L13.28,10.8C13.12,10.64,13.04,10.4,13.12,10.16C13.2,9.92,13.44,9.84,13.68,9.84L15.2,9.84C15.68,9.84,16,9.44,16,9.04L16,7.12C16,6.56,15.6,6.24,15.2,6.24ZM10.08,8C10.08,9.12,9.12,10.08,8,10.08C6.88,10.08,5.92,9.12,5.92,8C5.92,6.88,6.88,5.92,8,5.92C9.12,5.92,10.08,6.88,10.08,8Z" /></g></svg>